<?xml version="1.0" encoding="utf-8"?>
<!-- Generator: Adobe Illustrator 23.1.0, SVG Export Plug-In . SVG Version: 6.00 Build 0)  -->
<svg version="1.1" id="Layer_1" xmlns="http://www.w3.org/2000/svg" xmlns:xlink="http://www.w3.org/1999/xlink" x="0px" y="0px"
	 viewBox="0 0 800 800" style="enable-background:new 0 0 800 800;" xml:space="preserve">
<style type="text/css">
	.st0{display:none;fill:url(#SVGID_1_);}
	.st1{fill:#FFFFFF;}
	.st2{display:none;}
	.st3{display:inline;fill:url(#SVGID_2_);}
	.st4{display:inline;fill:url(#SVGID_3_);}
	.st5{display:inline;}
	.st6{fill:url(#SVGID_4_);}
	.st7{fill:url(#SVGID_5_);}
	.st8{fill:url(#SVGID_6_);}
	.st9{fill:url(#SVGID_7_);}
	.st10{display:inline;fill:#757575;}
</style>
<radialGradient id="SVGID_1_" cx="400" cy="400" r="400" gradientTransform="matrix(1 0 0 -1 0 800)" gradientUnits="userSpaceOnUse">
	<stop  offset="0" style="stop-color:#292C33"/>
	<stop  offset="1" style="stop-color:#000000"/>
</radialGradient>
<rect class="st0" width="800" height="800"/>
<g>
	<path class="st1" d="M697.5,440.2c0,28.2-0.3,56.5,0,84.7c0,9.5-3.2,16.4-10.7,22.6c-22,18.3-43.4,37.4-65.1,56
		c-3.6,3.1-7.7,5.5-14.6,10.5V414c-1.1-0.4-2.2-0.8-3.2-1.1c-3,2.6-6.1,5-9,7.7c-61.4,58.3-122.9,116.7-184.3,175
		c-11.2,10.6-11.2,10.6-22.9-0.5C326.5,536.7,265,478.3,203.6,420c-2.7-2.5-5.6-4.8-11.4-9.8v203.1c-5.7-3.6-8.7-5-11.1-7.1
		c-24.1-20.6-48.5-40.8-71.8-62.3c-4.9-4.6-7.3-14.1-7.3-21.4c-0.6-64.1-0.4-128.2-0.4-192.3c0-13.3,0.2-26.7,0-40
		c-0.1-10,3.9-14.4,14.4-14.1c17.2,0.6,34.5,1.2,51.5-0.2c17.6-1.5,29.9,5.2,42.3,17.2c13.8,13.4,27.6,26.7,41.5,40
		c29.5,28.3,59.2,56.5,88.9,84.7c15.9,15.1,31.8,30.2,47.7,45.3c11.7,11.1,11.8,11.1,23.8-0.3c15-14.3,30-28.5,45-42.8
		c29.6-28.2,59.3-56.5,88.9-84.7c16.7-16,33.4-32,50-48c8.3-8,16.9-11.8,28.5-11.3c19.1,0.7,38.2,0.1,57.3,0.2
		c14.9,0,16.3,1.3,16.3,16.4C697.7,341.8,697.6,391,697.5,440.2z"/>
	<path class="st1" d="M539.6,232.9L490.5,191c-3-2.6-6.8-4-10.8-4H316.9c-4,0-7.8,1.4-10.8,4l-49,41.9c-3.7,3.2-5.8,7.8-5.8,12.6
		v58.8c0,4.5,1.8,8.8,5.1,12c27.8,26.7,55.8,53.2,83.7,79.8v-41.6h116.5v43.8c27.9-26.6,55.9-53.2,83.7-79.8c3.3-3.1,5.1-7.5,5.1-12
		v-61C545.4,240.6,543.3,236,539.6,232.9z M340.1,299.3v-18.6l50-36.1c4.9-3.5,11.5-3.5,16.4,0l50,36.1v18.6H340.1z"/>
</g>
<g class="st2">
	
		<linearGradient id="SVGID_2_" gradientUnits="userSpaceOnUse" x1="399.5699" y1="65.8123" x2="399.5699" y2="1263.3171" gradientTransform="matrix(1 0 0 -1 0 800)">
		<stop  offset="0" style="stop-color:#FFFFFF"/>
		<stop  offset="1" style="stop-color:#000000"/>
	</linearGradient>
	<path class="st3" d="M708.5,478.8c0,29.3-0.3,58.6,0,87.8c0,9.8-3.3,17-11.1,23.5c-22.8,19-45,38.8-67.5,58.1
		c-3.7,3.2-8,5.8-15.1,10.8V451.6c-1.1-0.4-2.2-0.8-3.3-1.2c-3.1,2.6-6.3,5.2-9.3,8c-63.7,60.5-127.4,121-191.1,181.5
		c-11.6,11-11.6,11-23.7-0.5c-63.7-60.5-127.4-121-191-181.5c-2.8-2.6-5.8-5-11.9-10.1v210.6c-5.9-3.8-9-5.2-11.5-7.3
		c-25-21.4-50.3-42.3-74.4-64.6c-5.1-4.7-7.5-14.6-7.6-22.2c-0.6-66.5-0.4-133-0.4-199.4c0-13.8,0.3-27.7,0-41.5
		c-0.2-10.4,4-15,14.9-14.6c17.8,0.6,35.7,1.3,53.4-0.2c18.3-1.5,31,5.4,43.9,17.8c14.3,13.9,28.6,27.7,43,41.5
		c30.6,29.4,61.4,58.6,92.1,87.8c16.5,15.7,33,31.3,49.5,47c12.1,11.5,12.3,11.5,24.6-0.3c15.6-14.8,31.1-29.6,46.6-44.4
		c30.7-29.3,61.5-58.5,92.1-87.9c17.3-16.6,34.6-33.1,51.9-49.7c8.7-8.3,17.5-12.2,29.5-11.8c19.8,0.7,39.6,0.1,59.4,0.2
		c15.5,0,16.9,1.3,16.9,17C708.7,376.7,708.5,427.8,708.5,478.8z"/>
	
		<linearGradient id="SVGID_3_" gradientUnits="userSpaceOnUse" x1="397.935" y1="15.5479" x2="397.935" y2="1514.8206" gradientTransform="matrix(1 0 0 -1 0 800)">
		<stop  offset="0" style="stop-color:#FFFFFF"/>
		<stop  offset="1" style="stop-color:#000000"/>
	</linearGradient>
	<path class="st4" d="M581.3,195.6l-63.7-54.4c-3.9-3.4-8.9-5.2-14-5.2H292.2c-5.1,0-10.1,1.8-14,5.2l-63.7,54.4
		c-4.8,4.1-7.6,10.1-7.6,16.4v76.4c0,5.9,2.4,11.5,6.6,15.5c36.1,34.6,72.4,69.1,108.7,103.6v-54h151.2v56.9
		c36.2-34.5,72.5-69.1,108.7-103.6c4.2-4.1,6.6-9.7,6.6-15.6V212C588.9,205.6,586.1,199.7,581.3,195.6z M322.4,281.8v-24.1
		l64.9-46.9c6.4-4.6,14.9-4.6,21.3,0l65,46.9v24.1H322.4z"/>
</g>
<g class="st2">
	<g class="st5">
		
			<linearGradient id="SVGID_4_" gradientUnits="userSpaceOnUse" x1="397.9573" y1="653.2255" x2="397.9573" y2="269.5952" gradientTransform="matrix(1 0 0 -1 0 800)">
			<stop  offset="0" style="stop-color:#FFFFFF"/>
			<stop  offset="1" style="stop-color:#000000"/>
		</linearGradient>
		<path class="st6" d="M462.4,166.3c0.1-6.4-2.4-11.1-7.4-14.9c-8.8-6.8-17.5-13.9-26.1-20.9c-7.5-6-14.9-12.2-22.4-18.1
			c-5.6-4.4-11-4.4-16.7-0.1c-1.2,0.9-2.4,1.9-3.6,2.9c-15.8,12.7-31.7,25.4-47.5,38.1c-3.6,2.8-5.2,6.5-5.1,11
			c0.1,4.5,0,9.1,0,13.6h0c0,4.9,0,9.9,0,14.8c0,1.4,0.4,2.4,1.5,3.2c7.3,5.5,14.5,11,21.8,16.6v-18.1c0-4.2,3.4-7.6,7.6-7.6h68.3
			c4.2,0,7.6,3.4,7.6,7.6v17.5c6.8-5.3,13.5-10.6,20.3-15.9c1.3-1,1.8-2.1,1.8-3.7C462.3,183.6,462.2,174.9,462.4,166.3z
			 M421.5,166.3h-47.1c-5,0-7.1-6.3-3.2-9.3l23.5-18.6c1.9-1.5,4.6-1.5,6.5,0l23.5,18.6C428.7,160.1,426.5,166.3,421.5,166.3z"/>
		
			<linearGradient id="SVGID_5_" gradientUnits="userSpaceOnUse" x1="398.1349" y1="653.2255" x2="398.1349" y2="269.5952" gradientTransform="matrix(1 0 0 -1 0 800)">
			<stop  offset="0" style="stop-color:#FFFFFF"/>
			<stop  offset="1" style="stop-color:#000000"/>
		</linearGradient>
		<path class="st7" d="M524.1,195c0,0.1-0.1,0.1-0.2,0.1c-0.7,0.6-1.2,1.1-1.8,1.5c-2.7,2.1-5.5,4.2-8.2,6.3c-3,2.4-6.1,4.7-9.2,7
			c-3.6,2.8-7.2,5.6-10.9,8.3c-30.9,23.7-61.7,47.5-92.6,71.2c-3.5,2.7-3.4,2.6-6.9,0c-25.5-19.6-51-39.1-76.5-58.7
			c-5.3-4.1-10.6-8.1-15.9-12.2c-3.6-2.8-7.2-5.6-10.9-8.3c-3.2-2.4-6.4-4.9-9.5-7.3c-2.5-1.9-5.1-3.9-7.6-5.9
			c-1.3-1-1.9-1.5-1.9-2.1c0-0.5,0.6-1.1,1.8-2c6.7-5.1,13.4-10.2,20.1-15.3c1-0.8,2-1.6,3.1-2.3c1.4-1.1,2.5-0.9,3.8,0.1
			c7.5,6,15.1,11.9,22.7,17.9c16.5,12.9,33.1,25.8,49.7,38.7c6.9,5.4,13.5,11,20.4,16.4c4.5,3.6,3.3,3.9,8.4-0.1
			c18.2-14.3,36.4-28.7,54.6-43.1c12.5-9.9,25.1-19.6,37.7-29.5c1.7-1.4,2.9-1.5,4.7-0.1c0.9,0.7,1.8,1.4,2.7,2.1
			c6.3,4.8,12.6,9.5,18.9,14.3C521.8,192.9,522.8,193.9,524.1,195z"/>
		
			<linearGradient id="SVGID_6_" gradientUnits="userSpaceOnUse" x1="524.125" y1="653.2255" x2="524.125" y2="269.5952" gradientTransform="matrix(1 0 0 -1 0 800)">
			<stop  offset="0" style="stop-color:#FFFFFF"/>
			<stop  offset="1" style="stop-color:#000000"/>
		</linearGradient>
		<path class="st8" d="M524.2,204.8C524.1,204.8,524.1,204.8,524.2,204.8l-0.1-0.5C524.1,204.4,524.2,204.6,524.2,204.8z"/>
		
			<linearGradient id="SVGID_7_" gradientUnits="userSpaceOnUse" x1="398.02" y1="653.2255" x2="398.02" y2="269.5952" gradientTransform="matrix(1 0 0 -1 0 800)">
			<stop  offset="0" style="stop-color:#FFFFFF"/>
			<stop  offset="1" style="stop-color:#000000"/>
		</linearGradient>
		<path class="st9" d="M524.1,206.9V325c0,0.6-0.5,1-1,1h-29.1v0c-27.8,0-55.5,0-83.3,0c-36.2,0-72.3-0.1-108.5-0.2
			c-5.5,0-11,0-16.6,0c-3.4,0-6.8,0-10.1,0c-1.2,0-1.9,0-2.4-0.3l0,0c-0.6,0-1-0.5-1-1V207.2c0-0.9,1-1.3,1.6-0.8
			c0.9,0.7,1.8,1.4,2.7,2.1c3.3,2.6,6.6,5.1,10,7.7c5.2,4,10.3,7.9,15.5,11.9c0.3,0.2,0.4,0.5,0.4,0.8v65.7c0,0.9,1,1.4,1.7,0.8
			c13.2-11.6,26.3-23.3,39.5-34.9c0.1-0.1,0.2-0.1,0.3-0.2c1.4-1.2,2.6-1.5,4.2-0.1c1.3,1.1,1.5,1.9,0.1,3c-0.1,0.1-0.2,0.2-0.3,0.3
			c-2.2,1.9-4.4,3.8-6.5,5.7c-12.9,11.3-25.8,22.6-38.7,33.9c-0.1,0.1-0.2,0.2-0.3,0.2v17.1c0,0.6,0.5,1,1,1h189.8c0.6,0,1-0.5,1-1
			v-16.7c0-0.3-0.1-0.6-0.4-0.8c-10.8-9.3-21.6-18.6-32.3-28c-4.4-3.8-8.8-7.7-13.1-11.6c-0.1-0.1-0.2-0.2-0.3-0.2
			c-0.8-0.7-2.5-1.4-1-2.8c1.2-1.1,2.4-2.4,4.2-0.7c0.3,0.3,0.5,0.5,0.8,0.8c4.8,4.4,9.8,8.8,14.7,13.1c8.5,7.4,17,14.9,25.6,22.3
			c0.7,0.6,1.7,0.1,1.7-0.8v-66.3c0-0.3,0.1-0.6,0.4-0.8c5.2-4,10.3-7.9,15.5-11.9c3.1-2.4,6.2-4.8,9.3-7.1c0.1-0.1,0.2-0.1,0.3-0.2
			c1-0.8,2-1.6,3-2.4C523.1,205.6,524.1,206.1,524.1,206.9z"/>
	</g>
	<path class="st10" d="M327.1,164.4V186c0,1.2-1.4,1.9-2.3,1.1l-17-13.1c-0.8-0.6-0.7-1.9,0.2-2.4l17-8.5
		C326,162.7,327.1,163.4,327.1,164.4z"/>
	<path class="st10" d="M469,164.4V186c0,1.2,1.4,1.9,2.3,1.1l17-13.1c0.8-0.6,0.7-1.9-0.2-2.4l-17-8.5
		C470.1,162.7,469,163.4,469,164.4z"/>
</g>
</svg>
